<?xml version="1.0" encoding="UTF-8"?>
<svg id="Capa_1" xmlns="http://www.w3.org/2000/svg" version="1.1" xmlns:xlink="http://www.w3.org/1999/xlink" viewBox="0 0 112.6 83.5">
  <!-- Generator: Adobe Illustrator 29.3.1, SVG Export Plug-In . SVG Version: 2.1.0 Build 151)  -->
  <defs>
    <style>
      .st0 {
        fill: #fff;
      }

      .st1 {
        fill: url(#Degradado_sin_nombre);
      }
    </style>
    <linearGradient id="Degradado_sin_nombre" data-name="Degradado sin nombre" x1="85.4" y1="942.1" x2="27.2" y2="1042.9" gradientTransform="translate(0 -950)" gradientUnits="userSpaceOnUse">
      <stop offset="0" stop-color="#a25a9f"/>
      <stop offset=".3" stop-color="#904f96"/>
      <stop offset=".8" stop-color="#643481"/>
      <stop offset="1" stop-color="#4d2676"/>
    </linearGradient>
  </defs>
  <path class="st1" d="M102.6,3.1H10c-3.9,0-7.1,3.2-7.1,7.1v64.7c0,3.9,3.2,7.1,7.1,7.1h92.6c3.9,0,7.1-3.2,7.1-7.1V10.2c0-3.9-3.2-7.1-7.1-7.1ZM36.9,48.6l-24.2,12.1v-12.1l12.1-6-12.1-6.1v-12.1l24.2,12.1v12.1ZM101.9,64h-18.8l-23-26.2v26.2h-16.7V21.1h23l18.8,22.7v-22.7h16.7s0,42.9,0,42.9Z"/>
  <polygon class="st0" points="85.1 43.8 66.3 21.1 43.3 21.1 43.3 64 60 64 60 37.8 83.1 64 101.9 64 101.9 21.1 85.1 21.1 85.1 43.8"/>
  <polygon class="st0" points="12.7 36.5 24.8 42.5 12.7 48.6 12.7 60.7 36.9 48.6 36.9 36.5 12.7 24.4 12.7 36.5"/>
</svg>